<?xml version="1.0" standalone="no"?>
<!DOCTYPE svg PUBLIC "-//W3C//DTD SVG 20010904//EN"
 "http://www.w3.org/TR/2001/REC-SVG-20010904/DTD/svg10.dtd">
<svg version="1.0" xmlns="http://www.w3.org/2000/svg"
 width="700.000000pt" height="700.000000pt" viewBox="0 0 700.000000 700.000000"
 preserveAspectRatio="xMidYMid meet">
<metadata>
Created by potrace 1.11, written by Peter Selinger 2001-2013
</metadata>
<g transform="translate(0.000000,700.000000) scale(0.100000,-0.100000)"
fill="#000000" stroke="none">
<path d="M0 6045 l0 -955 3500 0 3500 0 0 955 0 955 -3500 0 -3500 0 0 -955z"/>
<path d="M4 4451 c-2 -2 -4 -432 -4 -955 l0 -951 3500 0 3500 0 0 955 0 955
-3496 0 c-1923 0 -3498 -2 -3500 -4z"/>
<path d="M0 955 l0 -955 3500 0 3500 0 0 955 0 955 -3500 0 -3500 0 0 -955z"/>
</g>
</svg>
